:SAMPLES-PER-SECOND 30
:FULLY-SPECIFIED
:DEGREES
77
root  6.25605 39.5756 30.7571 -100.351 -84.7733 93.9908
RightUpLeg  -10.7594 0.0671158 -9.92553
RightLeg  64.3156 -0.921654 -2.6858
RightFoot  7.24509 -0.946355 6.09701
RightToes  1.74622e-010 0 -3.6325e-017
Spine  7.51005 0.731401 -0.421147
Spine1  7.42238 2.13257 -6.08607
HEad  -9.01513 -6.76836 0.763117
LeftShoulder1  8.12372 -11.5995 -46.9252
LeftArm  -9.73149 20.7119 -28.8713
LeftForeArm  23.1507 -16.6772 -4.20393
LeftHand  -0.244104 0.0205437 5.32207
RightShoulder  7.26471 10.7816 44.3897
RightArm  -3.49772 -2.45697 35.3998
RightForeArm  15.9044 2.77434 7.42564
RightHand  -0.851836 1.26611 -14.9512
LeftUpLeg  -7.91534 16.3377 -8.88723
LeftLeg  16.5242 7.80618 0.29808
LeftFoot  -4.01001 -0.458119 7.50695
LeftToes  -3.34697e-010 -1.70107e-010 -9.05613e-011
78
root  4.93445 39.8533 30.8915 -81.7324 -85.5398 74.9231
RightUpLeg  -14.4207 -0.588211 -8.38016
RightLeg  61.3053 -1.84131 -4.14834
RightFoot  5.21783 -0.70274 5.07179
RightToes  1.74622e-010 0 -3.6325e-017
Spine  8.68506 -0.082391 -0.113603
Spine1  7.05778 1.01878 -5.14545
HEad  -9.57294 -6.33692 0.968229
LeftShoulder1  8.0174 -11.5003 -46.6096
LeftArm  -10.63 17.8833 -28.7027
LeftForeArm  22.7878 -23.5308 -3.86622
LeftHand  -0.244104 0.0205437 5.32207
RightShoulder  7.08243 10.5893 43.8403
RightArm  -1.24657 -6.87582 34.8625
RightForeArm  14.2623 6.5035 8.09029
RightHand  -0.778768 1.05096 -14.1251
LeftUpLeg  -3.94479 12.35 -7.18405
LeftLeg  14.6433 10.1378 -0.795951
LeftFoot  -5.47745 -0.316697 6.83344
LeftToes  -3.34697e-010 -1.70107e-010 -9.05613e-011
79
root  3.60376 40.0491 31.0022 -63.9241 -85.5697 56.7199
RightUpLeg  -17.0859 -1.27383 -7.09313
RightLeg  55.2739 -3.15474 -5.29535
RightFoot  3.33402 -0.519641 4.21236
RightToes  1.74622e-010 0 -3.6325e-017
Spine  9.64904 -0.624271 -0.252931
Spine1  6.80514 0.137767 -4.02308
HEad  -10.1068 -6.0946 1.21936
LeftShoulder1  7.92858 -11.424 -46.321
LeftArm  -13.4906 15.5549 -28.0953
LeftForeArm  25.8068 -31.2388 -5.38488
LeftHand  -0.244104 0.0205437 5.32207
RightShoulder  6.87529 10.3512 43.2601
RightArm  3.02836 -10.9516 34.0115
RightForeArm  10.2919 10.6674 8.37587
RightHand  -0.700204 0.713298 -13.4063
LeftUpLeg  -0.19771 8.39353 -6.13494
LeftLeg  12.6085 12.5277 -1.92752
LeftFoot  -6.59221 -0.231892 6.55735
LeftToes  -3.34697e-010 -1.70107e-010 -9.05613e-011
80
root  2.24856 40.1298 31.0854 -52.3978 -85.1298 44.9398
RightUpLeg  -18.6228 -2.17364 -6.14781
RightLeg  46.23 -3.99562 -4.80948
RightFoot  1.63396 -0.439784 3.97065
RightToes  1.74622e-010 0 -3.6325e-017
Spine  10.1566 -0.962949 -0.666306
Spine1  6.86588 -0.494265 -3.14099
HEad  -10.4493 -6.01804 1.5138
LeftShoulder1  7.89145 -11.4018 -46.1683
LeftArm  -14.8366 13.2475 -27.0795
LeftForeArm  28.5658 -38.9298 -7.2565
LeftHand  -0.244104 0.0205437 5.32207
RightShoulder  6.70905 10.1253 42.8926
RightArm  8.36918 -14.384 33.0067
RightForeArm  5.5395 14.4139 7.68693
RightHand  -0.692879 0.630181 -13.4375
LeftUpLeg  2.97057 5.6948 -5.70834
LeftLeg  11.3249 14.0835 -2.63321
LeftFoot  -8.15312 -0.120233 6.01381
LeftToes  -3.34697e-010 -1.70107e-010 -9.05613e-011
81
root  0.81661 40.0225 31.1405 -47.078 -84.4342 39.5408
RightUpLeg  -19.1067 -3.72742 -5.51444
RightLeg  34.9824 -3.54606 -2.938
RightFoot  0.999222 -0.468604 4.39199
RightToes  1.74622e-010 0 -3.6325e-017
Spine  9.94841 -1.20687 -1.41271
Spine1  7.29142 -0.965485 -2.6329
HEad  -10.7372 -5.94083 1.79066
LeftShoulder1  7.86586 -11.4102 -45.9874
LeftArm  -15.6812 10.8224 -25.9285
LeftForeArm  31.5112 -45.5901 -9.20477
LeftHand  -0.244104 0.0205437 5.32207
RightShoulder  6.59443 9.9865 42.5747
RightArm  11.0236 -17.0869 32.1587
RightForeArm  3.41354 16.3707 6.99025
RightHand  -0.72221 0.76989 -13.6952
LeftUpLeg  5.32484 4.99872 -5.58963
LeftLeg  11.8028 13.9203 -2.78273
LeftFoot  -10.993 0.050154 4.89843
LeftToes  -3.34697e-010 -1.70107e-010 -9.05613e-011
82
root  -0.709046 39.834 31.187 -45.8246 -83.6813 38.33
RightUpLeg  -18.781 -6.9524 -4.69226
RightLeg  22.6278 -1.92409 -1.19776
RightFoot  1.22415 -0.542523 4.99847
RightToes  1.74622e-010 0 -3.6325e-017
Spine  9.09191 -1.4109 -2.42383
Spine1  7.96721 -1.39543 -1.89052
HEad  -11.0169 -5.74474 1.95866
LeftShoulder1  7.80972 -11.4017 -45.6751
LeftArm  -16.4771 8.54468 -24.8884
LeftForeArm  34.2287 -50.7074 -11.0401
LeftHand  -0.244104 0.0205437 5.32207
RightShoulder  6.53889 9.96872 42.2514
RightArm  10.3365 -18.9701 31.4857
RightForeArm  4.1215 15.9315 7.11457
RightHand  -0.723389 0.817581 -13.6146
LeftUpLeg  7.71453 5.13653 -5.58916
LeftLeg  12.3556 12.9818 -2.95355
LeftFoot  -13.7835 0.171336 4.0622
LeftToes  -3.34697e-010 -1.70107e-010 -9.05613e-011
83
root  -2.28736 39.6697 31.2411 -46.079 -83.0047 38.7298
RightUpLeg  -17.8059 -9.96283 -4.1755
RightLeg  9.8616 -1.51821 0.837953
RightFoot  1.41226 -0.603071 5.4753
RightToes  1.74622e-010 0 -3.6325e-017
Spine  7.84464 -1.55467 -3.29604
Spine1  8.83141 -1.79685 -0.760242
HEad  -11.129 -5.58169 1.91084
LeftShoulder1  7.77263 -11.388 -45.4939
LeftArm  -17.0164 6.47612 -23.8218
LeftForeArm  36.1429 -54.1403 -12.5311
LeftHand  -0.244104 0.0205437 5.32207
RightShoulder  6.50272 9.95948 42.0321
RightArm  7.09233 -20.2018 30.766
RightForeArm  6.4814 13.7228 7.76046
RightHand  -0.696276 0.661788 -13.4364
LeftUpLeg  10.6367 5.08081 -5.72927
LeftLeg  11.6288 12.4045 -3.2708
LeftFoot  -15.5988 0.237893 3.85689
LeftToes  -3.34697e-010 -1.70107e-010 -9.05613e-011
84
root  -3.94089 39.4253 31.3026 -46.8525 -82.4665 39.7034
RightUpLeg  -16.6166 -6.84485 -5.90944
RightLeg  -1.00801 -6.69515 4.22627
RightFoot  0.732415 -0.616834 5.89499
RightToes  1.74622e-010 0 -3.6325e-017
Spine  6.39976 -1.62889 -3.73168
Spine1  9.67998 -2.04109 0.11121
HEad  -11.0353 -5.76427 1.54556
LeftShoulder1  7.82186 -11.4054 -45.7367
LeftArm  -17.2231 4.47214 -22.6787
LeftForeArm  37.4532 -56.0208 -13.452
LeftHand  -0.244104 0.0205437 5.32207
RightShoulder  6.41699 9.83333 41.8584
RightArm  2.5216 -21.114 30.0838
RightForeArm  8.97626 11.0743 8.0965
RightHand  -0.673852 0.438686 -13.4868
LeftUpLeg  13.6579 5.02448 -5.84626
LeftLeg  10.826 12.0596 -3.45228
LeftFoot  -17.6291 0.285211 3.31095
LeftToes  -3.34697e-010 -1.70107e-010 -9.05613e-011
85
root  -5.67659 39.0341 31.3559 -47.2223 -82.0946 40.2061
RightUpLeg  -17.172 -7.02313 -5.87802
RightLeg  -5.0983 -7.24806 5.24778
RightFoot  -1.28242 -0.589272 6.55437
RightToes  1.74622e-010 0 -3.6325e-017
Spine  5.17608 -1.72906 -3.87101
Spine1  10.1599 -2.23113 0.695787
HEad  -10.9719 -6.15146 0.911121
LeftShoulder1  7.91502 -11.4364 -46.2002
LeftArm  -17.5118 2.9 -21.8531
LeftForeArm  38.8078 -56.8667 -13.8322
LeftHand  -0.244104 0.0205437 5.32207
RightShoulder  6.29009 9.64512 41.6001
RightArm  -1.66037 -21.7239 29.6543
RightForeArm  10.2404 8.91129 7.81767
RightHand  -0.658317 0.234998 -13.6375
LeftUpLeg  16.4202 5.44932 -5.54192
LeftLeg  11.1474 11.2412 -3.45008
LeftFoot  -20.2559 0.275892 1.9778
LeftToes  -3.34697e-010 -1.70107e-010 -9.05613e-011
86
root  -7.38475 38.6946 31.3834 -44.0773 -81.8024 37.1658
RightUpLeg  -18.0034 -6.84412 -5.55137
RightLeg  -4.12401 -9.87606 5.25234
RightFoot  -1.44652 -0.491655 5.59031
RightToes  1.74622e-010 0 -3.6325e-017
Spine  4.64291 -2.02446 -3.81535
Spine1  10.3199 -2.85442 1.80841
HEad  -11.1404 -6.26686 0.302955
LeftShoulder1  7.96708 -11.4569 -46.4471
LeftArm  -18.1226 2.50881 -21.6721
LeftForeArm  40.2651 -57.2773 -13.9485
LeftHand  -0.244104 0.0205437 5.32207
RightShoulder  6.18583 9.50275 41.3399
RightArm  -4.42442 -21.8533 29.3618
RightForeArm  10.0797 7.41742 7.29863
RightHand  -0.642398 0.0304649 -13.7944
LeftUpLeg  18.9209 6.57757 -4.35676
LeftLeg  11.9575 9.37416 -3.2125
LeftFoot  -21.7153 0.199184 0.746001
LeftToes  -3.34697e-010 -1.70107e-010 -9.05613e-011
87
root  -9.12956 38.4768 31.3935 -36.3214 -81.2316 29.393
RightUpLeg  -18.7895 -7.71156 -4.93062
RightLeg  0.400989 -14.1987 4.89147
RightFoot  1.78706 -0.195597 1.92509
RightToes  1.74622e-010 0 -3.6325e-017
Spine  4.38372 -2.69736 -3.4196
Spine1  10.3622 -3.98683 3.16142
HEad  -11.4474 -6.13453 -0.0780048
LeftShoulder1  7.99624 -11.491 -46.513
LeftArm  -18.5469 3.3995 -21.9598
LeftForeArm  41.1851 -57.2513 -13.848
LeftHand  -0.244104 0.0205437 5.32207
RightShoulder  6.11015 9.36894 41.2521
RightArm  -5.99781 -21.7405 28.9727
RightForeArm  9.08454 6.76743 6.87543
RightHand  -0.641508 -0.0790116 -14.0469
LeftUpLeg  21.1378 8.896 -1.96966
LeftLeg  13.6081 5.56092 -2.28671
LeftFoot  -21.8658 0.0682638 -0.662462
LeftToes  -3.34697e-010 -1.70107e-010 -9.05613e-011
88
root  -11.0021 38.3488 31.4242 -26.2291 -81.168 19.0989
RightUpLeg  -20.2565 -11.626 -2.35284
RightLeg  7.52882 -14.363 3.07046
RightFoot  6.39817 0.51271 -2.98324
RightToes  1.74622e-010 0 -3.6325e-017
Spine  3.78144 -3.35531 -1.20241
Spine1  10.519 -4.74209 3.48009
HEad  -11.6478 -6.23752 -0.416674
LeftShoulder1  8.06128 -11.529 -46.7794
LeftArm  -18.1976 5.01947 -22.4711
LeftForeArm  41.3031 -56.2531 -13.2536
LeftHand  -0.244104 0.0205437 5.32207
RightShoulder  6.03681 9.19578 41.3171
RightArm  -7.29431 -21.8405 28.535
RightForeArm  7.99161 7.0866 6.59012
RightHand  -0.666996 0.0881615 -14.1735
LeftUpLeg  23.1117 11.7338 1.67546
LeftLeg  16.2557 0.957381 -0.952901
LeftFoot  -21.1982 -0.235844 -4.22187
LeftToes  -3.34697e-010 -1.70107e-010 -9.05613e-011
89
root  -12.9236 38.2902 31.4528 -14.6258 -82.7263 7.27585
RightUpLeg  -22.1934 -17.4802 3.10547
RightLeg  14.5685 -7.55329 0.068849
RightFoot  8.84385 1.38676 -7.50555
RightToes  1.74622e-010 0 -3.6325e-017
Spine  3.02756 -3.35493 3.0892
Spine1  10.6063 -4.37221 2.50951
HEad  -11.5233 -6.57349 -0.922666
LeftShoulder1  8.10667 -11.4875 -47.1815
LeftArm  -17.3783 7.25086 -23.3961
LeftForeArm  41.0803 -54.1202 -12.1227
LeftHand  -0.244104 0.0205437 5.32207
RightShoulder  5.99236 9.09582 41.3396
RightArm  -8.52623 -21.9705 28.3481
RightForeArm  7.22962 7.83443 6.3695
RightHand  -0.690055 0.41949 -13.851
LeftUpLeg  23.8596 13.5386 5.53635
LeftLeg  20.9005 -1.13136 0.0284075
LeftFoot  -18.1346 -0.449572 -9.81349
LeftToes  -3.34697e-010 -1.70107e-010 -9.05613e-011
